<svg width="857" height="749" viewBox="0 0 857 749" fill="none" xmlns="http://www.w3.org/2000/svg">
<path d="M145.485 381.921L144.185 381.521L143.785 379.421L143.185 379.321C142.685 380.021 141.385 382.921 141.585 382.721C138.085 384.721 135.285 386.221 132.085 388.621C120.085 397.421 108.985 413.321 94.1846 416.921C89.7846 418.021 79.8846 416.421 76.4846 413.421C62.4846 400.921 52.1846 384.121 38.9846 370.621C35.8846 367.521 33.4846 362.621 30.4846 359.721C23.9846 353.521 19.5846 345.921 13.4846 339.621C2.48457 328.221 -6.21543 315.521 5.78457 300.421C10.1846 294.821 18.7846 289.321 23.5846 283.721C43.5846 265.421 63.0846 247.521 83.5846 229.721C98.7846 216.421 113.385 201.721 128.885 188.421C140.285 178.721 157.185 162.321 169.585 154.621C173.685 152.021 198.085 149.021 203.985 148.121L259.885 139.821L285.185 136.221C289.785 135.621 302.185 133.221 305.685 135.121C321.685 143.321 335.085 151.721 352.185 157.921C375.385 166.421 399.985 170.721 424.785 170.521C453.985 170.321 484.085 165.121 511.385 154.921C515.585 153.321 519.485 151.321 523.685 149.621C525.685 148.721 527.985 148.821 530.085 147.921C537.385 144.821 546.185 136.221 553.385 134.721C561.385 133.021 627.985 144.521 641.485 146.521C652.985 148.221 664.685 149.521 675.985 151.721C680.885 152.621 688.285 153.721 692.485 156.221C699.785 160.421 709.685 170.921 716.285 176.921C733.685 192.421 750.985 208.021 768.085 223.721L827.185 277.021C840.685 289.321 864.985 305.521 853.185 326.821C851.485 330.021 846.085 335.821 843.585 338.821L826.085 359.621L798.085 392.621C792.785 398.921 787.385 405.621 781.685 411.621C777.885 415.721 773.185 417.121 767.585 417.021C764.185 417.021 760.785 416.121 757.785 414.621C748.685 410.021 739.585 399.121 731.385 392.821C726.285 388.821 721.585 383.821 716.185 380.221C712.785 377.821 711.285 388.121 711.285 389.721C711.185 400.021 711.185 410.321 711.185 420.621V479.121L710.985 652.921V697.421C710.985 707.221 711.785 719.721 710.085 729.221C708.785 736.721 697.885 746.421 690.285 747.221C684.385 747.921 677.085 747.721 671.085 747.821H637.585L531.985 748.121L303.085 747.521L216.485 747.721C202.785 747.821 187.885 748.221 174.285 747.921C170.185 747.821 166.085 747.121 162.185 745.921C143.885 739.121 144.485 724.321 144.685 707.921C144.785 703.121 144.685 698.221 144.685 693.421L144.385 633.321L144.085 438.521C144.085 426.421 144.285 414.321 144.585 402.121C144.785 395.721 145.685 389.321 145.585 382.921L145.485 381.921Z" fill="black"/>
<path d="M289.085 149.521L290.785 149.321C292.485 151.321 293.285 160.921 294.585 164.321C315.385 218.221 369.785 238.421 422.485 241.821C422.385 249.421 420.885 284.121 424.385 288.021C425.285 289.021 426.885 289.521 428.185 289.721C434.285 290.321 439.985 281.221 444.485 277.721C454.285 270.121 466.685 266.621 479.085 268.021C490.785 269.521 501.485 275.521 508.685 284.921C516.185 294.421 519.585 306.621 517.885 318.621C516.285 330.621 509.985 341.521 500.285 348.821C481.485 362.821 454.085 359.621 438.585 342.221C434.685 337.821 430.785 332.321 424.485 337.021C422.785 338.321 422.785 340.721 422.585 342.621C422.385 353.621 422.485 364.721 422.485 375.721C422.685 399.921 422.585 424.221 422.385 448.421H332.885C340.485 439.421 345.185 428.921 346.485 417.121C348.085 402.121 343.585 387.221 333.985 375.621C324.385 364.021 310.485 356.721 295.485 355.221C279.885 353.821 265.885 358.921 253.985 368.821C230.085 390.821 228.785 422.721 247.785 448.321C219.085 448.421 187.785 447.821 159.285 448.621V396.021C159.285 387.921 160.585 361.221 158.585 355.021C158.185 353.821 157.085 352.921 155.885 352.421C154.485 351.821 153.185 351.721 151.785 352.421C147.085 354.521 142.485 359.821 138.685 363.221C132.085 369.121 98.3846 400.421 91.8846 402.321C89.4846 403.021 87.5846 402.621 85.4846 401.421C83.4846 400.321 81.6846 398.621 80.1846 396.921C70.3846 386.021 61.3846 374.121 51.7846 362.921L29.3846 336.421C25.3846 331.721 21.0846 327.221 17.3846 322.321C15.9846 320.521 14.4846 318.121 14.0846 315.821C13.6846 313.721 14.5846 311.321 15.7846 309.621C18.4846 305.821 171.485 168.121 174.785 166.621C178.685 164.821 203.985 162.021 209.985 161.121C236.585 157.521 262.885 153.621 289.085 149.521Z" fill="#32A298"/>
<path d="M564.685 148.821C571.885 150.421 585.085 152.021 592.985 153.221L651.385 161.921C660.785 163.321 671.985 164.621 681.285 166.721C682.885 167.121 687.085 170.721 688.385 171.921C724.785 204.921 761.485 237.621 797.985 270.521L826.985 296.621C831.285 300.521 836.985 304.721 840.385 309.321C841.985 311.421 842.385 314.321 841.985 316.921C841.685 318.421 841.085 319.721 840.185 320.921C833.985 329.221 775.085 399.321 772.085 401.221C769.785 402.621 766.385 403.021 763.885 402.021C758.185 399.821 751.985 392.921 747.285 388.821C738.785 381.321 730.085 374.021 721.685 366.521C717.285 362.621 713.185 358.221 708.585 354.521C707.385 353.621 705.885 352.421 704.385 352.221C702.185 351.921 700.285 352.821 698.685 354.221C696.585 360.121 697.485 380.921 697.485 388.421C697.585 408.421 697.485 428.421 697.385 448.421L626.885 448.521C617.185 448.521 607.485 448.121 597.885 448.421C594.085 448.521 590.485 448.721 589.085 452.821C587.385 457.621 593.085 460.621 595.885 463.621C608.085 476.221 612.185 492.021 607.385 508.821C604.685 516.321 601.185 522.321 595.285 527.621C586.785 535.421 575.485 539.521 563.985 538.921C552.385 538.321 541.585 533.121 533.885 524.421C526.185 515.721 522.285 504.221 523.185 492.521C523.885 482.521 528.085 472.921 534.485 465.321C538.385 460.721 548.685 456.921 541.385 449.521C537.185 448.021 530.985 448.321 526.485 448.321C495.985 448.821 464.885 447.621 434.485 448.521V355.121C436.785 356.821 438.985 358.621 441.385 360.221C461.885 373.621 489.285 373.121 508.585 357.721C520.485 348.221 528.185 334.421 529.785 319.221C531.485 303.321 527.385 288.321 517.185 275.921C507.585 264.321 493.785 257.021 478.785 255.721C461.585 254.221 447.285 259.821 434.385 270.621C434.285 260.921 434.285 251.321 434.385 241.621C464.785 239.621 491.885 234.221 517.885 217.021C542.685 200.721 560.785 179.021 564.685 148.821Z" fill="#E96F5A"/>
<path d="M434.385 460.721H522.785C517.285 468.021 513.485 476.621 511.985 485.621C509.285 501.221 512.685 515.921 521.985 528.721C530.385 540.421 543.185 548.221 557.485 550.421C572.185 552.721 587.285 549.021 599.085 540.021C610.985 531.221 618.885 517.821 620.685 503.121C622.785 487.521 618.985 473.221 609.485 460.721L697.585 460.621L697.385 638.321V693.521C697.385 702.821 697.585 712.221 697.185 721.521C696.585 735.621 682.485 734.021 672.585 733.921H434.385V660.621C434.385 651.121 434.485 641.721 434.485 632.221C434.485 629.021 434.885 620.821 432.485 618.821C425.285 612.821 420.485 621.721 416.085 625.921C407.085 634.521 395.085 639.121 382.685 638.821C370.685 638.521 359.285 633.321 351.085 624.621C343.085 616.021 338.885 604.621 339.285 592.921C340.585 555.321 385.585 537.221 413.585 561.321C417.485 564.221 421.885 571.521 427.085 571.421C432.285 571.321 434.185 568.221 434.185 563.621C434.385 552.121 434.285 540.821 434.385 529.321V460.721Z" fill="#9E86B7"/>
<path d="M285.285 367.521C330.085 362.121 352.785 419.121 317.685 446.921C313.785 450.021 310.685 454.521 315.085 458.721C316.385 460.021 316.885 460.021 318.585 460.221C329.685 460.821 340.885 460.621 351.985 460.621H422.485L422.385 552.821C386.285 521.621 330.285 543.521 327.485 591.221C326.685 605.021 330.285 617.621 338.685 628.621C347.785 640.621 361.385 648.421 376.285 650.421C394.785 652.821 408.285 647.321 422.485 636.321C422.485 646.821 423.385 731.121 421.785 733.821H183.885C176.985 733.821 167.585 735.121 162.785 729.621C161.285 727.921 159.685 725.721 159.585 723.421C159.285 714.521 159.385 705.621 159.385 696.721V641.921L159.485 460.721H230.285C241.085 460.721 252.385 461.121 263.085 460.321C264.985 460.221 266.085 459.321 267.085 457.721C270.685 451.921 265.685 448.321 261.785 444.821C233.485 419.421 247.185 373.421 285.285 367.521Z" fill="#F4B632"/>
<path d="M303.885 150.121C310.785 153.521 318.785 159.621 326.785 163.521C358.985 179.021 387.485 183.421 422.485 185.321C422.685 200.121 422.685 214.921 422.485 229.621C391.085 227.221 365.485 222.421 338.985 202.821C321.685 190.121 307.085 171.921 303.885 150.121Z" fill="#267873"/>
<path d="M552.185 150.821L552.585 151.221C552.985 162.221 540.285 181.021 532.785 189.221C507.985 216.421 470.685 228.721 434.485 229.921C433.885 226.721 434.185 215.721 434.185 211.821C434.285 202.921 434.285 194.121 434.185 185.221C441.285 184.721 447.485 184.721 454.685 184.021C490.785 180.221 521.785 170.521 552.185 150.821Z" fill="#B34F46"/>
<circle cx="304.697" cy="48.3813" r="40.8813" fill="#349F97" stroke="black" stroke-width="15"/>
<circle cx="552.914" cy="48.3813" r="40.8813" fill="#E86E5A" stroke="black" stroke-width="15"/>
</svg>
