<svg width="1024" height="1024" viewBox="0 0 1024 1024" fill="none" xmlns="http://www.w3.org/2000/svg">
<path d="M0 0H1024V1024H0V0Z" fill="#D9D9D9"/>
<path d="M229.485 519.921L228.185 519.521L227.785 517.421L227.185 517.321C226.685 518.021 225.385 520.921 225.585 520.721C222.085 522.721 219.285 524.221 216.085 526.621C204.085 535.421 192.985 551.321 178.185 554.921C173.785 556.021 163.885 554.421 160.485 551.421C146.485 538.921 136.185 522.121 122.985 508.621C119.885 505.521 117.485 500.621 114.485 497.721C107.985 491.521 103.585 483.921 97.4846 477.621C86.4846 466.221 77.7846 453.521 89.7846 438.421C94.1846 432.821 102.785 427.321 107.585 421.721C127.585 403.421 147.085 385.521 167.585 367.721C182.785 354.421 197.385 339.721 212.885 326.421C224.285 316.721 241.185 300.321 253.585 292.621C257.685 290.021 282.085 287.021 287.985 286.121L343.885 277.821L369.185 274.221C373.785 273.621 386.185 271.221 389.685 273.121C405.685 281.321 419.085 289.721 436.185 295.921C459.385 304.421 483.985 308.721 508.785 308.521C537.985 308.321 568.085 303.121 595.385 292.921C599.585 291.321 603.485 289.321 607.685 287.621C609.685 286.721 611.985 286.821 614.085 285.921C621.385 282.821 630.185 274.221 637.385 272.721C645.385 271.021 711.985 282.521 725.485 284.521C736.985 286.221 748.685 287.521 759.985 289.721C764.885 290.621 772.285 291.721 776.485 294.221C783.785 298.421 793.685 308.921 800.285 314.921C817.685 330.421 834.985 346.021 852.085 361.721L911.185 415.021C924.685 427.321 948.985 443.521 937.185 464.821C935.485 468.021 930.085 473.821 927.585 476.821L910.085 497.621L882.085 530.621C876.785 536.921 871.385 543.621 865.685 549.621C861.885 553.721 857.185 555.121 851.585 555.021C848.185 555.021 844.785 554.121 841.785 552.621C832.685 548.021 823.585 537.121 815.385 530.821C810.285 526.821 805.585 521.821 800.185 518.221C796.785 515.821 795.285 526.121 795.285 527.721C795.185 538.021 795.185 548.321 795.185 558.621V617.121L794.985 790.921V835.421C794.985 845.221 795.785 857.721 794.085 867.221C792.785 874.721 781.885 884.421 774.285 885.221C768.385 885.921 761.085 885.721 755.085 885.821H721.585L615.985 886.121L387.085 885.521L300.485 885.721C286.785 885.821 271.885 886.221 258.285 885.921C254.185 885.821 250.085 885.121 246.185 883.921C227.885 877.121 228.485 862.321 228.685 845.921C228.785 841.121 228.685 836.221 228.685 831.421L228.385 771.321L228.085 576.521C228.085 564.421 228.285 552.321 228.585 540.121C228.785 533.721 229.685 527.321 229.585 520.921L229.485 519.921Z" fill="black"/>
<path d="M373.085 287.521L374.785 287.321C376.485 289.321 377.285 298.921 378.585 302.321C399.385 356.221 453.785 376.421 506.485 379.821C506.385 387.421 504.885 422.121 508.385 426.021C509.285 427.021 510.885 427.521 512.185 427.721C518.285 428.321 523.985 419.221 528.485 415.721C538.285 408.121 550.685 404.621 563.085 406.021C574.785 407.521 585.485 413.521 592.685 422.921C600.185 432.421 603.585 444.621 601.885 456.621C600.285 468.621 593.985 479.521 584.285 486.821C565.485 500.821 538.085 497.621 522.585 480.221C518.685 475.821 514.785 470.321 508.485 475.021C506.785 476.321 506.785 478.721 506.585 480.621C506.385 491.621 506.485 502.721 506.485 513.721C506.685 537.921 506.585 562.221 506.385 586.421H416.885C424.485 577.421 429.185 566.921 430.485 555.121C432.085 540.121 427.585 525.221 417.985 513.621C408.385 502.021 394.485 494.721 379.485 493.221C363.885 491.821 349.885 496.921 337.985 506.821C314.085 528.821 312.785 560.721 331.785 586.321C303.085 586.421 271.785 585.821 243.285 586.621V534.021C243.285 525.921 244.585 499.221 242.585 493.021C242.185 491.821 241.085 490.921 239.885 490.421C238.485 489.821 237.185 489.721 235.785 490.421C231.085 492.521 226.485 497.821 222.685 501.221C216.085 507.121 182.385 538.421 175.885 540.321C173.485 541.021 171.585 540.621 169.485 539.421C167.485 538.321 165.685 536.621 164.185 534.921C154.385 524.021 145.385 512.121 135.785 500.921L113.385 474.421C109.385 469.721 105.085 465.221 101.385 460.321C99.9846 458.521 98.4846 456.121 98.0846 453.821C97.6846 451.721 98.5846 449.321 99.7846 447.621C102.485 443.821 255.485 306.121 258.785 304.621C262.685 302.821 287.985 300.021 293.985 299.121C320.585 295.521 346.885 291.621 373.085 287.521Z" fill="#32A298"/>
<path d="M648.685 286.821C655.885 288.421 669.085 290.021 676.985 291.221L735.385 299.921C744.785 301.321 755.985 302.621 765.285 304.721C766.885 305.121 771.085 308.721 772.385 309.921C808.785 342.921 845.485 375.621 881.985 408.521L910.985 434.621C915.285 438.521 920.985 442.721 924.385 447.321C925.985 449.421 926.385 452.321 925.985 454.921C925.685 456.421 925.085 457.721 924.185 458.921C917.985 467.221 859.085 537.321 856.085 539.221C853.785 540.621 850.385 541.021 847.885 540.021C842.185 537.821 835.985 530.921 831.285 526.821C822.785 519.321 814.085 512.021 805.685 504.521C801.285 500.621 797.185 496.221 792.585 492.521C791.385 491.621 789.885 490.421 788.385 490.221C786.185 489.921 784.285 490.821 782.685 492.221C780.585 498.121 781.485 518.921 781.485 526.421C781.585 546.421 781.485 566.421 781.385 586.421L710.885 586.521C701.185 586.521 691.485 586.121 681.885 586.421C678.085 586.521 674.485 586.721 673.085 590.821C671.385 595.621 677.085 598.621 679.885 601.621C692.085 614.221 696.185 630.021 691.385 646.821C688.685 654.321 685.185 660.321 679.285 665.621C670.785 673.421 659.485 677.521 647.985 676.921C636.385 676.321 625.585 671.121 617.885 662.421C610.185 653.721 606.285 642.221 607.185 630.521C607.885 620.521 612.085 610.921 618.485 603.321C622.385 598.721 632.685 594.921 625.385 587.521C621.185 586.021 614.985 586.321 610.485 586.321C579.985 586.821 548.885 585.621 518.485 586.521V493.121C520.785 494.821 522.985 496.621 525.385 498.221C545.885 511.621 573.285 511.121 592.585 495.721C604.485 486.221 612.185 472.421 613.785 457.221C615.485 441.321 611.385 426.321 601.185 413.921C591.585 402.321 577.785 395.021 562.785 393.721C545.585 392.221 531.285 397.821 518.385 408.621C518.285 398.921 518.285 389.321 518.385 379.621C548.785 377.621 575.885 372.221 601.885 355.021C626.685 338.721 644.785 317.021 648.685 286.821Z" fill="#E96F5A"/>
<path d="M518.385 598.721H606.785C601.285 606.021 597.485 614.621 595.985 623.621C593.285 639.221 596.685 653.921 605.985 666.721C614.385 678.421 627.185 686.221 641.485 688.421C656.185 690.721 671.285 687.021 683.085 678.021C694.985 669.221 702.885 655.821 704.685 641.121C706.785 625.521 702.985 611.221 693.485 598.721L781.585 598.621L781.385 776.321V831.521C781.385 840.821 781.585 850.221 781.185 859.521C780.585 873.621 766.485 872.021 756.585 871.921H518.385V798.621C518.385 789.121 518.485 779.721 518.485 770.221C518.485 767.021 518.885 758.821 516.485 756.821C509.285 750.821 504.485 759.721 500.085 763.921C491.085 772.521 479.085 777.121 466.685 776.821C454.685 776.521 443.285 771.321 435.085 762.621C427.085 754.021 422.885 742.621 423.285 730.921C424.585 693.321 469.585 675.221 497.585 699.321C501.485 702.221 505.885 709.521 511.085 709.421C516.285 709.321 518.185 706.221 518.185 701.621C518.385 690.121 518.285 678.821 518.385 667.321V598.721Z" fill="#9E86B7"/>
<path d="M369.285 505.521C414.085 500.121 436.785 557.121 401.685 584.921C397.785 588.021 394.685 592.521 399.085 596.721C400.385 598.021 400.885 598.021 402.585 598.221C413.685 598.821 424.885 598.621 435.985 598.621H506.485L506.385 690.821C470.285 659.621 414.285 681.521 411.485 729.221C410.685 743.021 414.285 755.621 422.685 766.621C431.785 778.621 445.385 786.421 460.285 788.421C478.785 790.821 492.285 785.321 506.485 774.321C506.485 784.821 507.385 869.121 505.785 871.821H267.885C260.985 871.821 251.585 873.121 246.785 867.621C245.285 865.921 243.685 863.721 243.585 861.421C243.285 852.521 243.385 843.621 243.385 834.721V779.921L243.485 598.721H314.285C325.085 598.721 336.385 599.121 347.085 598.321C348.985 598.221 350.085 597.321 351.085 595.721C354.685 589.921 349.685 586.321 345.785 582.821C317.485 557.421 331.185 511.421 369.285 505.521Z" fill="#F4B632"/>
<path d="M387.885 288.121C394.785 291.521 402.785 297.621 410.785 301.521C442.985 317.021 471.485 321.421 506.485 323.321C506.685 338.121 506.685 352.921 506.485 367.621C475.085 365.221 449.485 360.421 422.985 340.821C405.685 328.121 391.085 309.921 387.885 288.121Z" fill="#267873"/>
<path d="M636.185 288.821L636.585 289.221C636.985 300.221 624.285 319.021 616.785 327.221C591.985 354.421 554.685 366.721 518.485 367.921C517.885 364.721 518.185 353.721 518.185 349.821C518.285 340.921 518.285 332.121 518.185 323.221C525.285 322.721 531.485 322.721 538.685 322.021C574.785 318.221 605.785 308.521 636.185 288.821Z" fill="#B34F46"/>
<circle cx="388.697" cy="186.381" r="40.8813" fill="#349F97" stroke="black" stroke-width="15"/>
<circle cx="636.914" cy="186.381" r="40.8813" fill="#E86E5A" stroke="black" stroke-width="15"/>
</svg>
